<svg height="512" viewBox="0 0 64 64" width="512" xmlns="http://www.w3.org/2000/svg"><path d="m44.579 49.006-1.158-1.631 4.5-3.191a1 1 0 0 1 .915-.127 11.3 11.3 0 0 0 10.055-1.44 12.051 12.051 0 0 0 1.434-1.134l1.356 1.47a14.191 14.191 0 0 1 -1.671 1.322 13.366 13.366 0 0 1 -11.345 1.833z" fill="#ccdce5"/><path d="m57.212 40.131c3.663-2.471 4.88-7.072 2.718-10.277s-6.884-3.8-10.547-1.33a7.962 7.962 0 0 0 -3.59 8.32l-28.953 18.542a2.929 2.929 0 0 0 -.849 4.1 2.929 2.929 0 0 0 4.124.751l28.038-19.9a7.959 7.959 0 0 0 9.059-.206z" fill="#3890ce"/><g fill="#ccdce5"><path d="m6.743 17.334a13 13 0 0 1 5.077-15.167l1.107 1.666a11 11 0 0 0 -4.3 12.833z"/><path d="m9.25 21.59a13.115 13.115 0 0 1 -1.5-2.089l1.731-1a11.125 11.125 0 0 0 1.274 1.769z"/><path d="m22 36-3-15a8 8 0 1 1 5.809-13.489 7.987 7.987 0 0 1 14.382 0 8 8 0 1 1 5.809 13.489l-3 15z"/></g><path d="m31 20h2v13.108h-2z" fill="#abbac2"/><path d="m25.568 24.96h2v8.034h-2z" fill="#abbac2" transform="matrix(.99 -.141 .141 .99 -3.831 4.049)"/><path d="m33.054 28.29h8.666v2h-8.666z" fill="#abbac2" transform="matrix(.142 -.99 .99 .142 3.098 62.152)"/><path d="m29.408 53.646 9.771-6.934-4.398-2.816-10.046 6.434z" fill="#2275ad"/><path d="m6.788 40.131c-3.663-2.471-4.88-7.072-2.718-10.277s6.884-3.8 10.547-1.33a7.962 7.962 0 0 1 3.59 8.32l28.953 18.542a2.929 2.929 0 0 1 .849 4.1 2.929 2.929 0 0 1 -4.124.751l-28.038-19.9a7.959 7.959 0 0 1 -9.059-.206z" fill="#3890ce"/><path d="m22 36h20l.8-4h-21.6z" fill="#3890ce"/></svg>